<?xml version="1.0" encoding="iso-8859-1"?>
<!-- Uploaded to: SVG Repo, www.svgrepo.com, Generator: SVG Repo Mixer Tools -->
<svg height="800px" width="800px" version="1.1" id="Capa_1" xmlns="http://www.w3.org/2000/svg" xmlns:xlink="http://www.w3.org/1999/xlink" 
	 viewBox="0 0 29.189 29.189" xml:space="preserve">
<g>
	<path style="fill:#030104;" d="M0.703,0C1.57,0,9.682,0.131,9.682,0.131s1.102,0,0.369,0.732c-0.73,0.73-1.9,1.893-1.9,1.893
		s0.32,0.318,0.803,0.805c1.475,1.471,6.652,6.652,7.895,7.896c0.025,0.023,0.057,0.055,0.074,0.074
		c1.266,1.262,7.232,7.229,8.701,8.705c0.49,0.48,0.805,0.805,0.805,0.805s1.168-1.17,1.9-1.904c0.729-0.73,0.727,0.371,0.727,0.371
		s0.131,8.111,0.133,8.977c-0.002,0.629-0.648,0.576-0.648,0.576l-8.953,0.127c0,0-1.074,0.027-0.475-0.572
		c0.605-0.602,2.057-2.059,2.057-2.059s-0.35-0.35-0.895-0.895c-1.525-1.525-7.387-7.389-8.684-8.689
		c-0.053-0.031-0.086-0.072-0.098-0.09c-0.021-0.014-0.057-0.039-0.08-0.086c-1.271-1.273-6.357-6.355-7.887-7.881
		C2.984,8.369,2.633,8.018,2.633,8.018s-1.453,1.455-2.059,2.06C-0.027,10.676,0,9.598,0,9.598l0.121-8.949
		C0.121,0.648,0.074,0,0.703,0z"/>
	<path style="fill:#030104;" d="M28.486,0c-0.867,0-8.977,0.131-8.977,0.131s-1.104,0-0.371,0.732c0.734,0.73,1.9,1.893,1.9,1.893
		s-0.318,0.318-0.801,0.805c-1.477,1.471-6.656,6.652-7.896,7.896c-0.025,0.023-0.055,0.055-0.072,0.074
		c-1.268,1.262-7.232,7.229-8.707,8.705c-0.482,0.48-0.803,0.805-0.803,0.805s-1.164-1.17-1.896-1.904
		c-0.734-0.73-0.732,0.371-0.732,0.371S0.004,27.619,0,28.484c0.004,0.629,0.652,0.576,0.652,0.576l8.951,0.127
		c0,0,1.074,0.027,0.477-0.572c-0.605-0.602-2.061-2.059-2.061-2.059s0.354-0.35,0.896-0.895c1.523-1.525,7.385-7.389,8.686-8.689
		c0.053-0.031,0.084-0.072,0.096-0.09c0.018-0.014,0.055-0.039,0.082-0.086c1.268-1.273,6.355-6.355,7.887-7.881
		c0.541-0.547,0.891-0.898,0.891-0.898s1.455,1.455,2.061,2.061c0.602,0.598,0.57-0.48,0.57-0.48l-0.125-8.949
		C29.062,0.648,29.115,0,28.486,0z"/>
</g>
</svg>