<?xml version="1.0" encoding="iso-8859-1"?>
<!-- Uploaded to: SVG Repo, www.svgrepo.com, Generator: SVG Repo Mixer Tools -->
<svg height="800px" width="800px" version="1.1" id="Layer_1" xmlns="http://www.w3.org/2000/svg" xmlns:xlink="http://www.w3.org/1999/xlink" 
	 viewBox="0 0 512 512" xml:space="preserve">
<g transform="translate(1)">
	<polygon style="fill:#FFDD09;" points="7.533,375.467 502.467,375.467 502.467,136.533 7.533,136.533 	"/>
	<polygon style="fill:#1CD759;" points="178.2,341.333 178.2,170.667 331.8,256 	"/>
	<polygon style="fill:#15A143;" points="178.2,170.667 178.2,179.2 289.133,256 178.2,332.8 178.2,341.333 331.8,256 	"/>
	<g>
		<polygon style="fill:#FCC309;" points="7.533,136.533 502.467,136.533 502.467,68.267 7.533,68.267 		"/>
		<polygon style="fill:#FCC309;" points="7.533,443.733 502.467,443.733 502.467,375.467 7.533,375.467 		"/>
	</g>
	<polygon style="fill:#FD9808;" points="476.867,443.733 502.467,443.733 502.467,102.4 476.867,102.4 	"/>
	<polygon style="fill:#1CD759;" points="86.893,375.467 14.36,375.467 82.627,443.733 155.16,443.733 	"/>
	<polygon style="fill:#FFFFFF;" points="7.533,443.733 33.133,443.733 33.133,68.267 7.533,68.267 	"/>
	<g>
		<polygon style="fill:#1CD759;" points="300.227,443.733 231.96,375.467 159.427,375.467 227.693,443.733 		"/>
		<polygon style="fill:#1CD759;" points="445.293,443.733 377.027,375.467 304.493,375.467 372.76,443.733 		"/>
		<polygon style="fill:#1CD759;" points="502.467,428.373 502.467,375.467 449.56,375.467 		"/>
		<polygon style="fill:#1CD759;" points="86.893,68.267 14.36,68.267 82.627,136.533 155.16,136.533 		"/>
		<polygon style="fill:#1CD759;" points="300.227,136.533 231.96,68.267 159.427,68.267 227.693,136.533 		"/>
		<polygon style="fill:#1CD759;" points="445.293,136.533 377.027,68.267 304.493,68.267 372.76,136.533 		"/>
		<polygon style="fill:#1CD759;" points="502.467,121.173 502.467,68.267 449.56,68.267 		"/>
	</g>
	<g>
		<polygon style="fill:#15A143;" points="476.867,66.56 476.867,93.867 502.467,119.467 502.467,66.56 		"/>
		<polygon style="fill:#15A143;" points="476.867,375.467 476.867,402.773 502.467,428.373 502.467,375.467 		"/>
	</g>
	<path d="M502.467,384H7.533C2.413,384-1,380.587-1,375.467V136.533c0-5.12,3.413-8.533,8.533-8.533h494.933
		c5.12,0,8.533,3.413,8.533,8.533v238.933C511,380.587,507.587,384,502.467,384z M16.067,366.933h477.867V145.067H16.067V366.933z"
		/>
	<path d="M155.16,145.067H82.627c-2.56,0-4.267-0.853-5.973-2.56L8.387,74.24c-2.56-2.56-2.56-5.973-1.707-9.387
		c1.707-3.413,4.267-5.12,7.68-5.12h72.533c2.56,0,4.267,0.853,5.973,2.56l68.267,68.267c2.56,2.56,3.413,5.973,1.707,9.387
		C161.987,143.36,158.573,145.067,155.16,145.067z M86.893,128h48.64l-51.2-51.2h-48.64L86.893,128z"/>
	<path d="M502.467,145.067H7.533c-5.12,0-8.533-3.413-8.533-8.533V68.267c0-5.12,3.413-8.533,8.533-8.533h494.933
		c5.12,0,8.533,3.413,8.533,8.533v68.267C511,141.653,507.587,145.067,502.467,145.067z M16.067,128h477.867V76.8H16.067V128z"/>
	<path d="M300.227,145.067h-72.533c-2.56,0-4.267-0.853-5.973-2.56L153.453,74.24c-2.56-2.56-3.413-5.973-1.707-9.387
		c0.853-3.413,4.267-5.12,7.68-5.12h72.533c2.56,0,4.267,0.853,5.973,2.56L306.2,130.56c2.56,2.56,3.413,5.973,1.707,9.387
		C307.053,143.36,303.64,145.067,300.227,145.067z M231.107,128h48.64l-51.2-51.2h-48.64L231.107,128z"/>
	<path d="M445.293,145.067H372.76c-2.56,0-4.267-0.853-5.973-2.56L298.52,74.24c-2.56-2.56-3.413-5.973-1.707-9.387
		c0.853-3.413,4.267-5.12,7.68-5.12h72.533c2.56,0,4.267,0.853,5.973,2.56l68.267,68.267c2.56,2.56,3.413,5.973,1.707,9.387
		C451.267,143.36,448.707,145.067,445.293,145.067z M376.173,128h48.64l-51.2-51.2h-48.64L376.173,128z"/>
	<path d="M502.467,129.707c-2.56,0-4.267-0.853-5.973-2.56l-53.76-52.907c-2.56-2.56-3.413-5.973-1.707-9.387
		c1.707-3.413,4.267-5.12,8.533-5.12h52.907c5.12,0,8.533,3.413,8.533,8.533v52.907c0,3.413-1.707,6.827-5.12,7.68
		C505.027,129.707,503.32,129.707,502.467,129.707z M470.04,76.8l23.893,23.893V76.8H470.04z"/>
	<path d="M155.16,452.267H82.627c-2.56,0-4.267-0.853-5.973-2.56L8.387,381.44c-2.56-2.56-3.413-5.973-1.707-9.387
		c1.707-3.413,4.267-5.12,7.68-5.12h72.533c2.56,0,4.267,0.853,5.973,2.56l68.267,68.267c2.56,2.56,3.413,5.973,1.707,9.387
		C161.133,450.56,158.573,452.267,155.16,452.267z M86.893,435.2h48.64l-51.2-51.2h-48.64L86.893,435.2z"/>
	<path d="M502.467,452.267H7.533c-5.12,0-8.533-3.413-8.533-8.533v-68.267c0-5.12,3.413-8.533,8.533-8.533h494.933
		c5.12,0,8.533,3.413,8.533,8.533v68.267C511,448.853,507.587,452.267,502.467,452.267z M16.067,435.2h477.867V384H16.067V435.2z"/>
	<path d="M300.227,452.267h-72.533c-2.56,0-4.267-0.853-5.973-2.56l-68.267-68.267c-2.56-2.56-3.413-5.973-1.707-9.387
		c1.707-3.413,4.267-5.12,7.68-5.12h72.533c2.56,0,4.267,0.853,5.973,2.56L306.2,437.76c2.56,2.56,3.413,5.973,1.707,9.387
		C307.053,450.56,303.64,452.267,300.227,452.267z M231.107,435.2h48.64l-51.2-51.2h-48.64L231.107,435.2z"/>
	<path d="M445.293,452.267H372.76c-2.56,0-4.267-0.853-5.973-2.56L298.52,381.44c-2.56-2.56-3.413-5.973-1.707-9.387
		c1.707-3.413,4.267-5.12,7.68-5.12h72.533c2.56,0,4.267,0.853,5.973,2.56l68.267,68.267c2.56,2.56,3.413,5.973,1.707,9.387
		C451.267,450.56,448.707,452.267,445.293,452.267z M376.173,435.2h48.64l-51.2-51.2h-48.64L376.173,435.2z"/>
	<path d="M502.467,436.907c-2.56,0-4.267-0.853-5.973-2.56l-53.76-52.907c-2.56-2.56-3.413-5.973-1.707-9.387
		c1.707-3.413,4.267-5.12,7.68-5.12h53.76c5.12,0,8.533,3.413,8.533,8.533v52.907c0,3.413-1.707,6.827-5.12,7.68
		C505.027,436.907,503.32,436.907,502.467,436.907z M470.04,384l23.893,23.893V384H470.04z"/>
	<path d="M178.2,349.867c-1.707,0-3.413,0-4.267-0.853c-2.56-1.707-4.267-4.267-4.267-7.68V170.667c0-3.413,1.707-5.973,4.267-7.68
		c2.56-1.707,5.973-1.707,8.533,0l153.6,85.333c2.56,1.707,4.267,4.267,4.267,7.68c0,3.413-1.707,5.973-4.267,7.68l-153.6,85.333
		C180.76,349.867,179.907,349.867,178.2,349.867z M186.733,185.173v141.653L313.88,256L186.733,185.173z"/>
</g>
</svg>